<svg width="286.000000" height="60.000000" viewBox="0 0 286 60" fill="none" xmlns="http://www.w3.org/2000/svg" xmlns:xlink="http://www.w3.org/1999/xlink">
	<path id="Vector" d="M15.0264 60L282 60C284.209 60 286 58.2091 286 56L286 18.963C286 18.1362 285.744 17.3298 285.267 16.6545L274.693 1.69165C273.943 0.630737 272.726 0 271.427 0L4 0C1.79102 0 0 1.79089 0 4L0 40.996C0 41.8481 0.272461 42.678 0.777344 43.3647L11.8037 58.3688C12.5576 59.3943 13.7539 60 15.0264 60ZM282 59L15.0264 59Q14.2676 59 13.6631 58.6941Q13.0586 58.3883 12.6094 57.7766L1.58301 42.7725Q1.29102 42.3761 1.14551 41.932Q1 41.4878 1 40.996L1 4Q1 3.37866 1.21973 2.84839Q1.43945 2.31799 1.87891 1.87866Q2.31836 1.43945 2.84766 1.21985Q3.37891 1 4 1L271.427 1Q272.203 1 272.815 1.31714Q273.429 1.6344 273.877 2.26868L284.45 17.2317Q284.725 17.6208 284.862 18.0536Q285 18.4865 285 18.963L285 56Q285 57.5 284.25 58.25Q283.5 59 282 59Z" fill="#0DE6BE" fill-opacity="1.000000" fill-rule="evenodd"/>
</svg>
