<svg width="453.000000" height="60.000000" viewBox="0 0 453 60" fill="none" xmlns="http://www.w3.org/2000/svg" xmlns:xlink="http://www.w3.org/1999/xlink">
  <rect width="100%" height="100%" fill="#00000000" fill-opacity="0.2"/>
	<path id="Vector" d="M23.8389 60L449 60C451.209 60 453 58.209 453 56L453 19.5859C453 18.3872 452.463 17.252 451.535 16.4922L432.517 0.90625C431.802 0.320312 430.906 0 429.981 0L4 0C1.79102 0 0 1.79102 0 4L0 40.3672C0 41.5923 0.561523 42.7505 1.52441 43.5088L21.3633 59.1416C22.0693 59.6978 22.9414 60 23.8389 60ZM449 59L23.8389 59Q23.3193 59 22.8555 58.8389Q22.3906 58.6782 21.9824 58.3564L2.14355 42.7231Q1.57129 42.2729 1.28613 41.6841Q1 41.0947 1 40.3672L1 4Q1 2.5 1.75 1.75Q2.5 1 4 1L429.981 1Q430.518 1 430.993 1.16992Q431.469 1.33984 431.883 1.67969L450.901 17.2656Q451.451 17.7158 451.726 18.2959Q452 18.876 452 19.5859L452 56Q452 57.5 451.25 58.25Q450.5 59 449 59Z" fill="#159981"/>
</svg>
