<?xml version="1.0" standalone="no"?>
<!DOCTYPE svg PUBLIC "-//W3C//DTD SVG 20010904//EN"
 "http://www.w3.org/TR/2001/REC-SVG-20010904/DTD/svg10.dtd">
<svg version="1.0" xmlns="http://www.w3.org/2000/svg"
 width="700.000000pt" height="700.000000pt" viewBox="0 0 700.000000 700.000000"
 preserveAspectRatio="xMidYMid meet">
<metadata>
Created by potrace 1.14, written by Peter Selinger 2001-2017
</metadata>
<g transform="translate(0.000000,700.000000) scale(0.100000,-0.100000)"
fill="#000000" stroke="none">
<path d="M2399 6996 c-2 -2 -38 -6 -79 -10 -41 -3 -102 -11 -135 -17 -33 -5
-73 -12 -90 -14 -65 -10 -280 -68 -368 -100 -129 -47 -249 -99 -337 -146 -8
-4 -37 -20 -65 -35 -84 -45 -268 -169 -361 -245 -49 -39 -145 -128 -214 -198
-363 -366 -597 -802 -699 -1306 -37 -182 -46 -282 -46 -505 0 -166 6 -277 20
-365 49 -316 137 -590 271 -843 406 -765 1151 -1273 2009 -1369 136 -15 532
-8 630 11 11 2 42 7 69 10 27 4 52 9 55 11 3 1 24 6 45 9 115 18 323 84 491
154 209 88 491 264 660 411 49 43 262 257 290 291 198 244 325 458 428 715 56
140 114 336 133 445 2 14 7 36 10 50 3 13 8 40 10 60 2 19 6 45 8 57 25 138
26 609 2 684 -3 8 -7 37 -10 66 -3 29 -11 75 -17 102 l-11 51 -1511 0 -1512 0
0 -555 c0 -363 3 -555 10 -556 6 0 418 -1 918 -1 513 -1 907 -5 907 -10 0 -33
-129 -249 -208 -348 -103 -129 -284 -279 -432 -358 -369 -198 -777 -230 -1175
-93 -318 111 -580 330 -772 646 -67 111 -143 319 -168 460 -20 117 -26 326
-12 440 67 536 443 1006 947 1183 97 34 237 67 325 77 78 10 254 10 330 0 428
-51 814 -291 1045 -649 23 -36 45 -64 49 -62 66 37 380 220 599 347 155 90
302 175 327 188 25 13 45 27 45 31 0 19 -177 270 -259 367 -127 153 -330 344
-447 423 -213 145 -247 165 -389 234 -224 110 -510 203 -710 231 -19 3 -52 8
-72 11 -21 3 -51 7 -68 10 -38 5 -462 14 -466 10z"/>
<path d="M5471 4868 c25 -145 33 -267 33 -458 0 -185 -7 -297 -30 -440 -2 -14
-7 -45 -10 -70 l-6 -45 769 1 768 1 3 557 2 556 -773 0 -773 0 17 -102z"/>
<path d="M5095 2914 c-22 -36 -44 -73 -50 -82 -5 -10 -36 -54 -67 -99 -242
-344 -553 -632 -913 -847 -60 -36 -114 -69 -120 -74 -7 -5 -10 -320 -9 -908
l0 -899 602 -3 602 -2 0 1490 c0 819 -1 1490 -3 1490 -2 0 -21 -30 -42 -66z"/>
</g>
</svg>
