<svg width="152.000000" height="40.000000" viewBox="0 0 152 40" fill="none" xmlns="http://www.w3.org/2000/svg" xmlns:xlink="http://www.w3.org/1999/xlink">
	<desc>
			Created with Pixso.
	</desc>
	<g>
		<mask id="mask_702_550" fill="white">
			<path id="Union" d="M0 17.6923L0 4C0 1.79086 1.79102 0 4 0L146 0C148.209 0 150 1.79086 150 4L150 4.85798C150 6.59327 152 8.26471 152 10L152 30C152 31.7353 150 33.4067 150 35.142L150 36C150 38.2091 148.209 40 146 40L4 40C1.79102 40 0 38.2091 0 36L0 17.6923Z" clip-rule="evenodd" fill="" fill-opacity="1.000000" fill-rule="evenodd"/>
		</mask>
		<path id="Union" d="M0 17.6923L0 4C0 1.79086 1.79102 0 4 0L146 0C148.209 0 150 1.79086 150 4L150 4.85798C150 6.59327 152 8.26471 152 10L152 30C152 31.7353 150 33.4067 150 35.142L150 36C150 38.2091 148.209 40 146 40L4 40C1.79102 40 0 38.2091 0 36L0 17.6923Z" clip-rule="evenodd" fill="#0DE6BE" fill-opacity="0.010000" fill-rule="evenodd" mask="url(#mask_702_550)"/>
	</g>
	<path id="Union" d="M0 4L0 36C0 38.2091 1.79102 40 4 40L146 40C148.209 40 150 38.2091 150 36L150 35.142C150 33.4067 152 31.7353 152 30L152 10C152 8.26471 150 6.59327 150 4.85798L150 4C150 1.79086 148.209 0 146 0L4 0C1.79102 0 0 1.79086 0 4ZM1 36L1 4Q1 2.5 1.75 1.75Q2.5 1 4 1L146 1Q147.5 1 148.25 1.75Q149 2.5 149 4L149 4.85798Q149 5.99744 150.138 7.93526Q151 9.4042 151 10L151 30Q151 30.5958 150.138 32.0647Q149 34.0026 149 35.142L149 36Q149 37.5 148.25 38.25Q147.5 39 146 39L4 39Q2.5 39 1.75 38.25Q1 37.5 1 36Z" clip-rule="evenodd" fill="#0DE6BE" fill-opacity="1.000000" fill-rule="evenodd"/>
</svg>