<svg width="33.333008" height="33.333496" viewBox="0 0 33.333 33.3335" fill="none" xmlns="http://www.w3.org/2000/svg" xmlns:xlink="http://www.w3.org/1999/xlink">
	<desc>
			Created with Pixso.
	</desc>
	<defs/>
	<path id="Vector" d="M3.33301 0L3.33301 8.3335L11.667 8.3335L9.0625 5.729C11.2197 4.22559 13.8301 3.3335 16.667 3.3335C24.0508 3.3335 30 9.28223 30 16.6665L33.333 16.6665C33.333 7.48096 25.8525 0 16.667 0C12.9219 0 9.45312 1.24121 6.66699 3.3335L3.33301 0ZM20.6709 9.25146L10.6641 22.5815L12.6631 24.082L22.6689 10.752L20.6709 9.25146ZM12.5 10C11.1201 10 10 11.1201 10 12.5C10 13.8799 11.1201 15 12.5 15C13.8799 15 15 13.8799 15 12.5C15 11.1201 13.8799 10 12.5 10ZM0 16.6665C0 25.8521 7.48145 33.3335 16.667 33.3335C20.4111 33.3335 23.8809 32.0923 26.667 30L30 33.3335L30 25L21.667 25L24.2705 27.604C22.1143 29.1079 19.5029 30 16.667 30C9.28223 30 3.33301 24.0513 3.33301 16.6665L0 16.6665ZM20.833 18.3335C19.4531 18.3335 18.333 19.4531 18.333 20.8335C18.333 22.2134 19.4531 23.3335 20.833 23.3335C22.2129 23.3335 23.333 22.2134 23.333 20.8335C23.333 19.4531 22.2129 18.3335 20.833 18.3335Z" fill="#FFFFFF" fill-opacity="1.000000" fill-rule="nonzero"/>
</svg>
