<svg width="40.000000" height="35.393066" viewBox="0 0 40 35.3931" fill="none" xmlns="http://www.w3.org/2000/svg" xmlns:xlink="http://www.w3.org/1999/xlink">
	<desc>
			Created with Pixso.
	</desc>
	<defs/>
	<path id="Vector" d="M26.1035 0L26.1035 1.86328L22.377 1.86328L22.377 7.4541L22.377 16.7715L26.1035 16.7715L26.1035 18.6348L29.8301 18.6348L29.8301 16.7715L30.7627 16.7715C31.7695 16.769 32.749 16.4404 33.5537 15.834C34.3584 15.228 34.9453 14.3774 35.2256 13.4097C35.5068 12.4419 35.4658 11.4097 35.1094 10.4668C34.7539 9.52441 34.1016 8.72266 33.252 8.18213C33.4922 7.55078 33.5918 6.875 33.5449 6.20117C33.498 5.52783 33.3047 4.87256 32.9795 4.28076C32.6543 3.68896 32.2041 3.17529 31.6602 2.7749C31.1162 2.37451 30.4922 2.09717 29.8301 1.96191L29.8301 0L26.1035 0ZM26.1035 5.59033L28.8984 5.59033C29.1455 5.58545 29.3848 5.6792 29.5625 5.85059C29.7412 6.02197 29.8438 6.25684 29.8486 6.50391C29.8535 6.75098 29.7598 6.99023 29.5889 7.16846C29.417 7.34619 29.1826 7.44922 28.9355 7.4541L26.1035 7.4541L26.1035 5.59033ZM26.1035 11.1812L28.8984 11.1812L30.7627 11.1812C31.0098 11.1812 31.2461 11.2793 31.4209 11.4541C31.5957 11.6284 31.6943 11.8657 31.6943 12.1128C31.6943 12.3599 31.5957 12.5967 31.4209 12.7715C31.2461 12.9463 31.0098 13.0444 30.7627 13.0444L26.1035 13.0444L26.1035 11.1812ZM9.24805 16.7715C8.68457 16.7783 8.125 16.8701 7.58887 17.0444L0 18.8208L0 32.2471L7.4541 29.8159L22.6533 35.1372C23.2549 35.3467 23.8936 35.4292 24.5293 35.3789C25.1641 35.3291 25.7822 35.1475 26.3438 34.8462L40 27.5522L37.8018 22.8643L24.3857 29.0117L23.6865 28.1089L24.2441 26.8862C24.4453 26.436 24.5557 25.9507 24.5684 25.458C24.5811 24.9653 24.4961 24.4746 24.3184 24.0151C24.1406 23.5552 23.873 23.1357 23.5312 22.7798C23.1895 22.4243 22.7812 22.1401 22.3291 21.9434L11.4141 17.1719L11.3779 17.1719C10.7227 16.9097 10.0234 16.7739 9.31738 16.7715C9.29492 16.7715 9.27148 16.7715 9.24805 16.7715Z" fill="#FFFFFF" fill-opacity="1.000000" fill-rule="nonzero"/>
</svg>
