<svg width="30.000000" height="33.333496" viewBox="0 0 30 33.3335" fill="none" xmlns="http://www.w3.org/2000/svg" xmlns:xlink="http://www.w3.org/1999/xlink">
	<desc>
			Created with Pixso.
	</desc>
	<defs/>
	<path id="Vector" d="M21.667 0C19.6006 0 17.7178 0.397461 16.208 1.15234C14.6982 1.90723 13.333 3.17871 13.333 5L13.333 10.9604C11.9053 10.3403 10.2012 10 8.33301 10C6.26758 10 4.38379 10.3975 2.87402 11.1523C1.36426 11.9072 0 13.1787 0 15L0 21.6665L0 28.3335C0 30.1548 1.36426 31.4263 2.87402 32.1812C4.38379 32.9355 6.26758 33.3335 8.33301 33.3335C10.3994 33.3335 12.2822 32.9355 13.792 32.1812C15.1074 31.5234 16.3096 30.4736 16.5986 29.0103C18.04 29.6499 19.7695 30 21.667 30C23.7324 30 25.6162 29.6025 27.126 28.8477C28.6357 28.0928 30 26.8213 30 25L30 11.6665L30 5C30 3.17871 28.6357 1.90723 27.126 1.15234C25.6162 0.397461 23.7324 0 21.667 0ZM16.667 9.03955C18.0947 9.65967 19.7988 10 21.667 10C23.5352 10 25.2383 9.65967 26.667 9.03955L26.667 11.6665C26.667 11.687 26.5381 12.0811 25.6348 12.5327C24.7314 12.9839 23.2822 13.3335 21.667 13.3335C20.0508 13.3335 18.6016 12.9839 17.6982 12.5327C16.7959 12.0811 16.667 11.687 16.667 11.6665L16.667 9.03955ZM16.667 15.7065C18.0947 16.3267 19.7988 16.6665 21.667 16.6665C23.5342 16.6665 25.2383 16.3267 26.667 15.7065L26.667 18.3335C26.667 18.3535 26.5381 18.7476 25.6348 19.1992C24.7314 19.6509 23.2822 20 21.667 20C20.0508 20 18.6016 19.6509 17.6982 19.1992C16.7959 18.7476 16.667 18.3535 16.667 18.3335L16.667 15.7065ZM3.33301 19.0396C4.76172 19.6597 6.46484 20 8.33301 20C10.2012 20 11.9053 19.6597 13.333 19.0396L13.333 21.6665C13.333 21.687 13.2041 22.0811 12.3018 22.5327C11.3984 22.9839 9.94922 23.3335 8.33301 23.3335C6.71777 23.3335 5.26855 22.9839 4.36523 22.5327C3.46191 22.0811 3.33301 21.687 3.33301 21.6665L3.33301 19.0396ZM16.667 22.373C18.0947 22.9932 19.7988 23.3335 21.667 23.3335C23.5342 23.3335 25.2383 22.9932 26.667 22.373L26.667 25C26.667 25.0205 26.5381 25.4146 25.6348 25.8657C24.7314 26.3174 23.2822 26.6665 21.667 26.6665C20.0508 26.6665 18.6016 26.3174 17.6982 25.8657C16.7959 25.4146 16.667 25.0205 16.667 25L16.667 22.373ZM13.333 25.7031L13.333 28.3335C13.333 28.3535 13.2041 28.7476 12.3018 29.1992C11.3984 29.6509 9.94922 30 8.33301 30C6.71777 30 5.26855 29.6509 4.36523 29.1992C3.46191 28.7476 3.33301 28.3535 3.33301 28.3335L3.33301 25.7065C4.76172 26.3267 6.46582 26.6665 8.33301 26.6665C10.2021 26.6665 11.9053 26.3242 13.333 25.7031Z" fill="#FFFFFF" fill-opacity="1.000000" fill-rule="nonzero"/>
</svg>
