<svg width="33.333008" height="33.333496" viewBox="0 0 33.333 33.3335" fill="none" xmlns="http://www.w3.org/2000/svg" xmlns:xlink="http://www.w3.org/1999/xlink">
	<desc>
			Created with Pixso.
	</desc>
	<defs/>
	<path id="Vector" d="M26.667 0L20 6.6665L25 6.6665L25 16.6665C25 17.6084 24.2754 18.3335 23.333 18.3335L11.667 18.3335L11.667 21.6665L23.333 21.6665C26.0752 21.6665 28.333 19.4082 28.333 16.6665L28.333 6.6665L33.333 6.6665L26.667 0ZM10 11.6665C7.25879 11.6665 5 13.9248 5 16.6665L5 26.6665L0 26.6665L6.66699 33.3335L13.333 26.6665L8.33301 26.6665L8.33301 16.6665C8.33301 15.7251 9.05859 15 10 15L21.667 15L21.667 11.6665L10 11.6665Z" fill="#FFFFFF" fill-opacity="1.000000" fill-rule="nonzero"/>
</svg>
