<svg width="272" height="60" viewBox="0 0 272 60" fill="none" xmlns="http://www.w3.org/2000/svg">
    <rect width="100%" height="100%" fill="#00000000" fill-opacity="0.2"/>
    <path d="M263.659 0L4 0C1.79102 0 0 1.79086 0 4L0 40.5786C0 41.6819 0.456055 42.7364 1.25977 43.4923L17.6562 58.9138C18.3984 59.6115 19.3789 60 20.3975 60L263.659 60C265.869 60 267.659 58.2092 267.659 56L267.659 54C267.659 51.7908 269.779 50.0427 271.117 48.2842C271.671 47.5553 272 46.6459 272 45.6595L272 14.3404C272 13.3541 271.671 12.4447 271.117 11.7158C269.779 9.95724 267.659 8.20914 267.659 6L267.659 4C267.659 1.79086 265.869 0 263.659 0Z" fill="#159981"/>
</svg>
