<svg width="135.000000" height="60.000000" viewBox="0 0 135 60" fill="none" xmlns="http://www.w3.org/2000/svg" xmlns:xlink="http://www.w3.org/1999/xlink">
	<desc>
			Created with Pixso.
	</desc>
	<defs>
		<filter id="filter_702_565_dd" x="0.000000" y="0.000000" width="135.000000" height="60.000000" filterUnits="userSpaceOnUse" color-interpolation-filters="sRGB">
			<feFlood flood-opacity="0" result="BackgroundImageFix"/>
			<feGaussianBlur in="BackgroundImage" stdDeviation="13.3333"/>
			<feComposite in2="SourceAlpha" operator="in" result="effect_backgroundBlur_1"/>
			<feBlend mode="normal" in="SourceGraphic" in2="effect_backgroundBlur_1" result="shape"/>
		</filter>
	</defs>
	<g filter="url(#filter_702_565_dd)">
		<mask id="mask_702_565" fill="white">
			<path id="Subtract" d="M131 60L4 60C1.79102 60 0 58.2092 0 56L0 54C0 51.7909 2.39844 49.8539 2.91602 47.7065C2.9707 47.4799 3 47.2433 3 47L3 13C3 12.7567 2.9707 12.5201 2.91602 12.2935C2.39844 10.1461 0 8.20914 0 6L0 4C0 1.79086 1.79102 0 4 0L119.974 0C121.246 0 122.443 0.605682 123.196 1.63126L134.224 16.6353C134.728 17.322 135 18.1519 135 19.0041L135 56C135 58.2092 133.209 60 131 60Z" clip-rule="evenodd" fill="" fill-opacity="1.000000" fill-rule="evenodd"/>
		</mask>
		<path id="Subtract" d="M131 60L4 60C1.79102 60 0 58.2092 0 56L0 54C0 51.7909 2.39844 49.8539 2.91602 47.7065C2.9707 47.4799 3 47.2433 3 47L3 13C3 12.7567 2.9707 12.5201 2.91602 12.2935C2.39844 10.1461 0 8.20914 0 6L0 4C0 1.79086 1.79102 0 4 0L119.974 0C121.246 0 122.443 0.605682 123.196 1.63126L134.224 16.6353C134.728 17.322 135 18.1519 135 19.0041L135 56C135 58.2092 133.209 60 131 60Z" clip-rule="evenodd" fill="#0DE6BE" fill-opacity="0.010000" fill-rule="evenodd" mask="url(#mask_702_565)"/>
	</g>
	<path id="Subtract" d="M4 60L131 60C133.209 60 135 58.2092 135 56L135 19.0041C135 18.1519 134.728 17.322 134.224 16.6353L123.196 1.63126C122.443 0.605682 121.246 0 119.974 0L4 0C1.79102 0 0 1.79086 0 4L0 6C0 8.20914 2.39844 10.1461 2.91602 12.2935C2.9707 12.5201 3 12.7567 3 13L3 47C3 47.2433 2.9707 47.4799 2.91602 47.7065C2.39844 49.8539 0 51.7909 0 54L0 56C0 58.2092 1.79102 60 4 60ZM133.25 58.25Q132.5 59 131 59L4 59Q2.5 59 1.75 58.25Q1 57.5 1 56L1 54Q1 53.059 2.34473 51.0023Q3.62012 49.0522 3.88867 47.9411Q3.9299 47.7699 3.95585 47.5965Q4 47.3016 4 47L4 13Q4 12.699 3.95601 12.4046Q3.93002 12.2306 3.88867 12.0589Q3.62012 10.9478 2.34473 8.99774Q1 6.94098 1 6L1 4Q1 2.5 1.75 1.75Q2.5 1 4 1L119.974 1Q120.734 1 121.338 1.30651Q121.942 1.61237 122.391 2.22345L133.417 17.2275Q133.709 17.6245 133.855 18.0693Q134 18.5129 134 19.0041L134 56Q134 57.5 133.25 58.25Z" clip-rule="evenodd" fill="#0DE6BE" fill-opacity="1.000000" fill-rule="evenodd"/>
</svg>
