<svg width="152.000000" height="40.000000" viewBox="0 0 152 40" fill="none" xmlns="http://www.w3.org/2000/svg" xmlns:xlink="http://www.w3.org/1999/xlink">
	<desc>
			Created with Pixso.
	</desc>
	<defs>
		<filter id="filter_702_512_dd" x="0.000000" y="0.000000" width="152.000000" height="40.000000" filterUnits="userSpaceOnUse" color-interpolation-filters="sRGB">
			<feFlood flood-opacity="0" result="BackgroundImageFix"/>
			<feGaussianBlur in="BackgroundImage" stdDeviation="13.3333"/>
			<feComposite in2="SourceAlpha" operator="in" result="effect_backgroundBlur_1"/>
			<feBlend mode="normal" in="SourceGraphic" in2="effect_backgroundBlur_1" result="shape"/>
		</filter>
	</defs>
	<g filter="url(#filter_702_512_dd)">
		<mask id="mask_702_512" fill="white">
			<path id="Union" d="M0 17.6924L0 4C0 1.79102 1.79102 0 4 0L146 0C148.209 0 150 1.79102 150 4L150 4.85791C150 6.59326 152 8.26465 152 10L152 30C152 31.7354 150 33.4067 150 35.1421L150 36C150 38.209 148.209 40 146 40L4 40C1.79102 40 0 38.209 0 36L0 17.6924Z" clip-rule="evenodd" fill="" fill-opacity="1.000000" fill-rule="evenodd"/>
		</mask>
		<path id="Union" d="M0 17.6924L0 4C0 1.79102 1.79102 0 4 0L146 0C148.209 0 150 1.79102 150 4L150 4.85791C150 6.59326 152 8.26465 152 10L152 30C152 31.7354 150 33.4067 150 35.1421L150 36C150 38.209 148.209 40 146 40L4 40C1.79102 40 0 38.209 0 36L0 17.6924Z" clip-rule="evenodd" fill="#0DE6BE" fill-opacity="0.010000" fill-rule="evenodd" mask="url(#mask_702_512)"/>
	</g>
	<path id="Union" d="M0 4L0 36C0 38.209 1.79102 40 4 40L146 40C148.209 40 150 38.209 150 36L150 35.1421C150 33.4067 152 31.7354 152 30L152 10C152 8.26465 150 6.59326 150 4.85791L150 4C150 1.79102 148.209 0 146 0L4 0C1.79102 0 0 1.79102 0 4ZM1 36L1 4Q1 2.5 1.75 1.75Q2.5 1 4 1L146 1Q147.5 1 148.25 1.75Q149 2.5 149 4L149 4.85791Q149 5.99756 150.138 7.93506Q151 9.4043 151 10L151 30Q151 30.5957 150.138 32.0649Q149 34.0024 149 35.1421L149 36Q149 37.5 148.25 38.25Q147.5 39 146 39L4 39Q2.5 39 1.75 38.25Q1 37.5 1 36Z" clip-rule="evenodd" fill="#777777" fill-opacity="1.000000" fill-rule="evenodd"/>
</svg>
