<svg width="103.000000" height="40.000000" viewBox="0 0 103 40" fill="none" xmlns="http://www.w3.org/2000/svg" xmlns:xlink="http://www.w3.org/1999/xlink">
	<desc>
			Created with Pixso.
	</desc>
	<defs/>
	<path id="Subtract" d="M99 40L4 40C1.79102 40 0 38.209 0 36L0 35.1421C0 33.4067 2 31.7354 2 30L2 10C2 8.26465 0 6.59326 0 4.85791L0 4C0 1.79102 1.79102 0 4 0L87.9736 0C89.2461 0 90.4434 0.605469 91.1963 1.63135L102.224 16.6353C102.728 17.3218 103 18.1519 103 19.0039L103 36C103 38.209 101.209 40 99 40Z" clip-rule="evenodd" fill="#0DE6BE" fill-opacity="1.000000" fill-rule="evenodd"/>
</svg>
