<svg width="31.666992" height="31.666626" viewBox="0 0 31.667 31.6666" fill="none" xmlns="http://www.w3.org/2000/svg" xmlns:xlink="http://www.w3.org/1999/xlink">
	<desc>
			Created with Pixso.
	</desc>
	<defs/>
	<path id="Vector" d="M0 0L0 15.8334L22.167 15.8334L22.167 6.33337L25.333 6.33337C26.2061 6.33337 26.917 7.04419 26.917 7.91663L26.917 11.0834L25.333 11.0834L25.333 20.5834L26.917 20.5834L26.917 31.6666L30.083 31.6666L30.083 20.5834L31.667 20.5834L31.667 11.0834L30.083 11.0834L30.083 7.91663C30.083 5.29785 27.9521 3.16663 25.333 3.16663L22.167 3.16663L22.167 0L0 0ZM11.083 6.33337C13.7021 6.33337 15.833 8.46448 15.833 11.0834L12.667 11.0834C12.667 10.2109 11.9561 9.5 11.083 9.5C10.2109 9.5 9.5 10.2109 9.5 11.0834L6.33301 11.0834C6.33301 8.46448 8.46484 6.33337 11.083 6.33337ZM0 19L0 31.6666L22.167 31.6666L22.167 19L0 19ZM7.91699 23.75C8.79102 23.75 9.5 24.4594 9.5 25.3334C9.5 26.2073 8.79102 26.9166 7.91699 26.9166C7.04297 26.9166 6.33301 26.2073 6.33301 25.3334C6.33301 24.4594 7.04297 23.75 7.91699 23.75ZM14.25 23.75C15.124 23.75 15.833 24.4594 15.833 25.3334C15.833 26.2073 15.124 26.9166 14.25 26.9166C13.376 26.9166 12.667 26.2073 12.667 25.3334C12.667 24.4594 13.376 23.75 14.25 23.75Z" fill="#FFFFFF" fill-opacity="1.000000" fill-rule="nonzero"/>
</svg>
