<svg width="28.500000" height="31.666626" viewBox="0 0 28.5 31.6666" fill="none" xmlns="http://www.w3.org/2000/svg" xmlns:xlink="http://www.w3.org/1999/xlink">
	<desc>
			Created with Pixso.
	</desc>
	<defs/>
	<path id="Vector" d="M6.33301 0C4.58691 0 3.16699 1.42029 3.16699 3.16663L3.16699 4.75L1.58301 4.75C0.708984 4.75 0 5.45935 0 6.33337C0 7.20728 0.708984 7.91663 1.58301 7.91663L3.16699 7.91663L3.16699 11.0834L1.58301 11.0834C0.708984 11.0834 0 11.7927 0 12.6666C0 13.5406 0.708984 14.25 1.58301 14.25L3.16699 14.25L3.16699 17.4166L1.58301 17.4166C0.708984 17.4166 0 18.126 0 19C0 19.874 0.708984 20.5834 1.58301 20.5834L3.16699 20.5834L3.16699 23.75L1.58301 23.75C0.708984 23.75 0 24.4594 0 25.3334C0 26.2073 0.708984 26.9166 1.58301 26.9166L3.16699 26.9166L3.16699 28.5C3.16699 30.2465 4.58691 31.6666 6.33301 31.6666L25.333 31.6666C27.0801 31.6666 28.5 30.2465 28.5 28.5L28.5 3.16663C28.5 1.42029 27.0801 0 25.333 0L6.33301 0ZM9.5 6.33337L22.167 6.33337L22.167 11.0834L9.5 11.0834L9.5 6.33337ZM9.5 14.25L22.167 14.25L22.167 17.4166L9.5 17.4166L9.5 14.25ZM9.5 20.5834L22.167 20.5834L22.167 23.75L9.5 23.75L9.5 20.5834Z" fill="#FFFFFF" fill-opacity="1.000000" fill-rule="nonzero"/>
</svg>
