<svg width="28.500000" height="30.083374" viewBox="0 0 28.5 30.0834" fill="none" xmlns="http://www.w3.org/2000/svg" xmlns:xlink="http://www.w3.org/1999/xlink">
	<desc>
			Created with Pixso.
	</desc>
	<defs/>
	<path id="Vector" d="M25.333 0L3.16699 0C1.41992 0 0 1.42029 0 3.16663L12.5732 17.4166L19 17.4166L19 20.5834L15.2744 20.5834C16.2988 21.8865 17.5527 24.1648 18.2637 26.9166L13.6455 26.9166C11.0801 21.9529 5.95801 17.2092 0 12.5385L0 25.3334C0 27.0797 1.41992 28.5 3.16699 28.5L10.8965 28.5L11.6885 30.0834L22.167 30.0834L21.8594 28.5L25.333 28.5C27.0801 28.5 28.5 27.0797 28.5 25.3334L28.5 3.16663C28.5 1.42029 27.0801 0 25.333 0ZM19 6.33337L9.5 6.33337L9.5 3.16663L19 3.16663L19 6.33337Z" fill="#FFFFFF" fill-opacity="1.000000" fill-rule="nonzero"/>
</svg>
