<svg width="38.000000" height="25.333374" viewBox="0 0 38 25.3334" fill="none" xmlns="http://www.w3.org/2000/svg" xmlns:xlink="http://www.w3.org/1999/xlink">
	<desc>
			Created with Pixso.
	</desc>
	<defs/>
	<path id="Vector" d="M12.667 0C5.67188 0 0 5.67151 0 12.6666C0 19.6619 5.67188 25.3334 12.667 25.3334C19.6621 25.3334 25.333 19.6619 25.333 12.6666C25.333 5.67151 19.6621 0 12.667 0ZM19 0C18.4629 0 17.9355 0.043335 17.417 0.108276C23.6631 0.888794 28.5 6.20825 28.5 12.6666C28.5 19.1251 23.6631 24.4445 17.417 25.2251C17.9355 25.29 18.4629 25.3334 19 25.3334C25.9951 25.3334 31.667 19.6619 31.667 12.6666C31.667 5.67151 25.9951 0 19 0ZM25.333 0C24.7969 0 24.2695 0.043335 23.75 0.108276C29.9961 0.888794 34.833 6.20825 34.833 12.6666C34.833 19.1251 29.9961 24.4445 23.75 25.2251C24.2695 25.29 24.7969 25.3334 25.333 25.3334C32.3281 25.3334 38 19.6619 38 12.6666C38 5.67151 32.3281 0 25.333 0ZM12.2119 2.53271L13.8076 2.53271L13.8076 4.83972C14.3164 4.93628 17.1602 5.58484 17.1602 9.74426L14.166 9.74426C14.166 7.57043 13.2432 7.22705 12.8555 7.22705C12.6436 7.22705 11.6621 7.28259 11.6621 9.06702C11.6631 12.1815 17.1387 11.2102 17.1387 16.2848C17.1387 19.9708 14.1113 20.4705 13.5762 20.537L13.5762 22.6429L11.9893 22.6429L11.9893 20.537C11.4951 20.4689 8.17383 20.1031 8.17383 15.524L11.167 15.524C11.167 18.2284 12.5596 18.1156 12.7715 18.1156C13.0049 18.1156 14.1484 18.0735 14.1484 16.3065C14.1484 12.7772 8.6709 14.3446 8.6709 9.05469C8.6709 5.42883 11.6758 4.86133 12.2119 4.79333L12.2119 2.53271Z" fill="#FFFFFF" fill-opacity="1.000000" fill-rule="nonzero"/>
</svg>
