<svg width="28.500000" height="28.500000" viewBox="0 0 28.5 28.5" fill="none" xmlns="http://www.w3.org/2000/svg" xmlns:xlink="http://www.w3.org/1999/xlink">
	<desc>
			Created with Pixso.
	</desc>
	<defs/>
	<path id="Vector" d="M0 0L0 6.33337L3.16699 6.33337L3.16699 3.16663L6.33301 3.16663L6.33301 0L0 0ZM22.167 0L22.167 3.16663L25.333 3.16663L25.333 6.33337L28.5 6.33337L28.5 0L22.167 0ZM14.25 3.16663C11.6309 3.16663 9.5 5.29785 9.5 7.91663C9.5 10.5355 11.6309 12.6666 14.25 12.6666C16.8691 12.6666 19 10.5355 19 7.91663C19 5.29785 16.8691 3.16663 14.25 3.16663ZM14.25 14.25C11.6074 14.25 6.33301 15.5752 6.33301 18.2084L6.33301 22.1666L22.167 22.1666L22.167 18.2084C22.167 15.5752 16.8926 14.25 14.25 14.25ZM0 22.1666L0 28.5L6.33301 28.5L6.33301 25.3334L3.16699 25.3334L3.16699 22.1666L0 22.1666ZM25.333 22.1666L25.333 25.3334L22.167 25.3334L22.167 28.5L28.5 28.5L28.5 22.1666L25.333 22.1666Z" fill="#FFFFFF" fill-opacity="1.000000" fill-rule="nonzero"/>
</svg>
